<svg width="20" height="19" viewBox="0 0 20 19" fill="none" xmlns="http://www.w3.org/2000/svg">
<path fill-rule="evenodd" clip-rule="evenodd" d="M3.5 1C3.5 0.447715 3.94772 0 4.5 0H15.5C16.0523 0 16.5 0.447715 16.5 1C16.5 1.55228 16.0523 2 15.5 2H4.5C3.94772 2 3.5 1.55228 3.5 1ZM4.06155 3H15.9385C18.5407 3 20.4502 5.44556 19.819 7.97014L17.819 15.9701C17.3739 17.7508 15.7739 19 13.9385 19H6.06155C4.22608 19 2.62615 17.7508 2.18099 15.9701L0.180983 7.97014C-0.450166 5.44555 1.45927 3 4.06155 3ZM4.06155 5C2.76041 5 1.80569 6.22278 2.12127 7.48507L4.12127 15.4851C4.34385 16.3754 5.14382 17 6.06155 17H13.9385C14.8562 17 15.6562 16.3754 15.8787 15.4851L17.8787 7.48507C18.1943 6.22278 17.2396 5 15.9385 5H4.06155ZM12.5 11C12.5 12.3536 11.2911 13.5 10 13.5C8.70885 13.5 7.5 12.3536 7.5 11C7.5 9.71345 8.64818 8.5 10 8.5C11.3954 8.5 12.5 9.60457 12.5 11ZM14.5 11C14.5 13.5 12.3534 15.5 10 15.5C7.64656 15.5 5.5 13.5 5.5 11C5.5 8.65299 7.5 6.5 10 6.5C12.5 6.5 14.5 8.5 14.5 11Z" fill="#33363F"/>
</svg>
