<?xml version="1.0" encoding="utf-8"?>
<!-- Generator: Adobe Illustrator 27.9.0, SVG Export Plug-In . SVG Version: 6.00 Build 0)  -->
<svg version="1.1" id="Layer_1" xmlns="http://www.w3.org/2000/svg" xmlns:xlink="http://www.w3.org/1999/xlink" x="0px" y="0px"
	 viewBox="0 0 24 24" style="enable-background:new 0 0 24 24;" xml:space="preserve">
<style type="text/css">
	.st0{fill:#070707;}
</style>
<path class="st0" d="M22.3,10.5l-1.1-0.9c0.2-0.5,0.6-0.9,0.7-1.5c0.2-0.5,0-1-0.5-1.3s-1,0-1.3,0.5c-1.4,3.3-4.6,5.5-8.2,5.5
	s-6.7-2.2-8.1-5.4C3.7,7,3.1,6.9,2.7,7C2.2,7.2,2,7.8,2.2,8.2c0.2,0.5,0.5,0.9,0.7,1.4l-1.3,0.9c-0.3,0.2-0.5,0.8-0.2,1.3
	c0.2,0.2,0.5,0.3,0.7,0.3c0.2,0,0.3-0.1,0.6-0.2L3.9,11c0.3,0.3,0.7,0.7,1.1,1.1l-0.9,1.3c-0.2,0.3-0.2,1,0.2,1.3
	c0.2,0.1,0.3,0.2,0.6,0.2c0.2,0,0.6-0.1,0.7-0.3l0.9-1.3C7,13.5,7.3,13.7,7.9,14l-0.6,1.5c-0.1,0.5,0.1,1,0.6,1.1c0.1,0,0.2,0,0.2,0
	c0.3,0,0.7-0.2,0.9-0.7l0.5-1.5c0.5,0.1,1,0.2,1.5,0.2v1.5c0,0.6,0.3,0.9,0.9,0.9s0.9-0.3,0.9-0.9v-1.5c0.5,0,1-0.1,1.5-0.2l0.5,1.5
	c0.1,0.3,0.5,0.7,0.9,0.7c0.1,0,0.2,0,0.2,0c0.5-0.2,0.7-0.7,0.6-1.3L16,13.8c0.5-0.2,0.9-0.5,1.4-0.7l0.9,1.3
	c0.2,0.2,0.5,0.3,0.7,0.3c0.2,0,0.3-0.1,0.6-0.2c0.3-0.2,0.5-0.9,0.2-1.3L18.8,12c0.3-0.3,0.7-0.7,1.1-1.1l1.3,0.9
	c0.2,0.1,0.3,0.2,0.6,0.2c0.2,0,0.6-0.1,0.7-0.3C22.8,11.4,22.7,10.9,22.3,10.5z"/>
</svg>
