<svg width="16" height="19" viewBox="0 0 16 19" fill="none" xmlns="http://www.w3.org/2000/svg">
<path fill-rule="evenodd" clip-rule="evenodd" d="M4.74605 5.10618C5.69734 4.29078 6.34128 3.74126 6.88132 3.38459C7.39795 3.04337 7.7154 2.95123 8 2.95123C8.28461 2.95123 8.60205 3.04337 9.11869 3.38459C9.65872 3.74126 10.3027 4.29078 11.254 5.10618L12.254 5.96333C13.3543 6.9065 13.6554 7.19277 13.817 7.54409C13.9786 7.89542 14 8.31034 14 9.75961V14C14 14.9711 13.9979 15.5988 13.9357 16.0613C13.8774 16.495 13.7832 16.631 13.7071 16.7071C13.6378 16.7764 13.5154 16.8739 13.019 16.934C12.6505 16.9786 12.1717 16.9931 11.5 16.9978V13.5C11.5 12.3954 10.6046 11.5 9.5 11.5H6.5C5.39543 11.5 4.5 12.3954 4.5 13.5V16.9978C3.82825 16.9931 3.34948 16.9786 2.98099 16.934C2.48463 16.8739 2.3622 16.7764 2.2929 16.7071C2.21677 16.631 2.12262 16.495 2.06431 16.0613C2.00213 15.5988 2 14.9711 2 14V9.75961C2 8.31034 2.02139 7.89542 2.18298 7.54409C2.34456 7.19277 2.64567 6.9065 3.74605 5.96333L4.74605 5.10618ZM5.5 19H5.42532H5.42529C4.28815 19 3.40577 19.0001 2.74058 18.9195C2.02747 18.8332 1.39516 18.6378 0.878681 18.1213C0.369019 17.6117 0.170274 16.9833 0.0821423 16.3278C-9.32217e-05 15.7161 -5.04255e-05 14.9523 -5.96046e-07 14.0658L1.78814e-06 14V9.75961L-0.000105977 9.57077C-0.0011158 8.39868 -0.00188303 7.50813 0.36595 6.70838C0.733783 5.90863 1.41044 5.32965 2.30101 4.56763L2.44446 4.44481L3.44446 3.58767L3.49307 3.54601C4.38331 2.7829 5.12195 2.14974 5.7791 1.71572C6.47157 1.25838 7.17483 0.951233 8 0.951233C8.82517 0.951233 9.52844 1.25838 10.2209 1.71572C10.878 2.14974 11.6167 2.7829 12.5069 3.546L12.5069 3.54601L12.5555 3.58767L13.5555 4.44481L13.699 4.56762C14.5896 5.32965 15.2662 5.90863 15.6341 6.70838C16.0019 7.50813 16.0011 8.39868 16.0001 9.57077L16 9.75961V14L16 14.0658V14.0659C16.0001 14.9523 16.0001 15.7161 15.9179 16.3278C15.8297 16.9833 15.631 17.6117 15.1213 18.1213C14.6048 18.6378 13.9725 18.8332 13.2594 18.9195C12.5942 19.0001 11.7119 19 10.5747 19H10.5747H10.5C9.94772 19 9.5 18.5523 9.5 18V13.5H6.5V18C6.5 18.5523 6.05229 19 5.5 19Z" fill="#33363F"/>
</svg>
