<svg width="25" height="24" viewBox="0 0 25 24" fill="none" xmlns="http://www.w3.org/2000/svg">
<path d="M7.60264 9.63245L3.34605 11.0513C2.16944 11.4435 1.58114 11.6396 1.58114 12C1.58114 12.3604 2.16944 12.5565 3.34605 12.9487L7.60263 14.3675L7.60264 14.3675C8.5337 14.6779 8.99923 14.8331 9.33307 15.1669C9.66693 15.5008 9.8221 15.9663 10.1325 16.8974L11.5513 21.1539C11.9435 22.3306 12.1396 22.9189 12.5 22.9189C12.8604 22.9189 13.0565 22.3306 13.4487 21.154L14.8675 16.8974C15.1779 15.9663 15.3331 15.5008 15.6669 15.1669C16.0008 14.8331 16.4663 14.6779 17.3974 14.3675L21.6539 12.9487C22.8306 12.5565 23.4189 12.3604 23.4189 12C23.4189 11.6396 22.8306 11.4435 21.654 11.0513L17.3974 9.63246C16.4663 9.3221 16.0008 9.16693 15.6669 8.83307C15.3331 8.49923 15.1779 8.0337 14.8675 7.10265L14.8675 7.10264L13.4487 2.84605C13.0565 1.66944 12.8604 1.08114 12.5 1.08114C12.1396 1.08114 11.9435 1.66944 11.5513 2.84605L10.1325 7.10263L10.1325 7.10264C9.8221 8.0337 9.66692 8.49923 9.33307 8.83307C8.99923 9.16692 8.5337 9.3221 7.60265 9.63245L7.60264 9.63245Z" stroke="#B47DF2" stroke-width="2"/>
</svg>
