<svg width="18" height="18" viewBox="0 0 18 18" fill="none" xmlns="http://www.w3.org/2000/svg">
<path d="M1.45971 16.5403L2.16388 15.8361L1.45971 16.5403C1.82849 16.9091 2.28045 16.9024 2.48714 16.8822C2.66675 16.8646 2.86967 16.8136 3.01615 16.7768C3.02816 16.7738 3.03979 16.7708 3.05099 16.768L6.0128 16.0276C6.03074 16.0231 6.04919 16.0185 6.0681 16.0139C6.27641 15.9625 6.54007 15.8974 6.78184 15.7605C7.02361 15.6236 7.21506 15.431 7.36631 15.2788C7.38004 15.265 7.39344 15.2515 7.40651 15.2385L15.2929 7.35209C15.3057 7.33926 15.3186 7.32644 15.3314 7.31363C15.6313 7.01382 15.9228 6.72246 16.1308 6.44979C16.3653 6.14239 16.5858 5.74443 16.5858 5.23077C16.5858 4.71711 16.3653 4.31915 16.1308 4.01175C15.9228 3.73908 15.6313 3.44772 15.3314 3.14792C15.3186 3.13511 15.3057 3.12229 15.2929 3.10945L14.8906 2.70711C14.8777 2.69427 14.8649 2.68145 14.8521 2.66863C14.5523 2.36871 14.2609 2.07723 13.9882 1.86919C13.6809 1.63466 13.2829 1.41421 12.7692 1.41421C12.2556 1.41421 11.8576 1.63466 11.5502 1.86919C11.2775 2.07723 10.9862 2.3687 10.6864 2.66862C10.6736 2.68144 10.6608 2.69427 10.6479 2.70711L2.76153 10.5935C2.74846 10.6066 2.73498 10.62 2.72116 10.6337C2.56899 10.7849 2.37637 10.9764 2.23949 11.2182C2.1026 11.4599 2.03753 11.7236 1.98613 11.9319C1.98146 11.9508 1.97691 11.9693 1.97242 11.9872L1.23197 14.949C1.22917 14.9602 1.22625 14.9719 1.22323 14.9839C1.18641 15.1303 1.1354 15.3333 1.11783 15.5129C1.09761 15.7196 1.09093 16.1715 1.45971 16.5403Z" stroke="#69709D" stroke-width="2"/>
<path d="M10 4L13 2L16 5L14 8L10 4Z" fill="#69709D"/>
</svg>
