<svg width="20" height="19" viewBox="0 0 20 19" fill="none" xmlns="http://www.w3.org/2000/svg">
<path fill-rule="evenodd" clip-rule="evenodd" d="M4.44041 0C3.88813 0 3.44041 0.447715 3.44041 1C3.44041 1.55228 3.88813 2 4.44041 2H15.4404C15.9927 2 16.4404 1.55228 16.4404 1C16.4404 0.447715 15.9927 0 15.4404 0H4.44041ZM15.8789 3H4.00197C1.39969 3 -0.509747 5.44555 0.1214 7.97014L2.1214 15.9701C2.56657 17.7508 4.1665 19 6.00197 19H13.8789C15.7143 19 17.3143 17.7508 17.7594 15.9701L19.7594 7.97014C20.3906 5.44556 18.4811 3 15.8789 3ZM9.742 5L9.7351 5.00606C9.82291 5.00204 9.91122 5 10 5C10.1355 5 10.2699 5.00441 10.403 5.01308L10.3866 5H10H9.742ZM10.5 17L10.5276 16.9749C10.5093 16.9767 10.4911 16.9783 10.4728 16.9799L10.5 17ZM10 15C12.0756 15 14 13.187 14 11C14 8.77123 12.2288 7 10 7C7.81484 7 6 8.93111 6 11C6 13.187 7.92437 15 10 15Z" fill="#33363F"/>
</svg>
