<svg width="40" height="40" viewBox="0 0 40 40" fill="none" xmlns="http://www.w3.org/2000/svg">
<path fill-rule="evenodd" clip-rule="evenodd" d="M20 0L22.1622 11.3514L28.6486 2.16216L25.9459 12.973L35.6757 7.56757L28.6486 16.2162L40 15.6757L29.1892 20L40 24.3243L28.6486 23.7838L35.6757 32.4324L25.9459 27.027L28.6486 37.8378L22.1622 28.6486L20 40L17.8378 28.6486L11.3514 37.8378L14.0541 27.027L4.32432 32.4324L11.3514 23.7838L0 24.3243L10.8108 20L0 15.6757L11.3514 16.2162L4.32432 7.56757L14.0541 12.973L11.3514 2.16216L17.8378 11.3514L20 0Z" fill="#FFC979"/>
</svg>
