<svg width="16" height="19" viewBox="0 0 16 19" fill="none" xmlns="http://www.w3.org/2000/svg">
<path fill-rule="evenodd" clip-rule="evenodd" d="M10.5 14V18C10.5 18.5523 10.9477 19 11.5 19H12.5L12.5602 19C12.8877 19.0003 13.2205 19.0005 13.5394 18.9349C13.9189 18.8569 14.2275 18.7012 14.5609 18.5015C14.7651 18.3791 14.9163 18.2816 15.1786 18.0085L15.1888 17.9978C15.3469 17.8333 15.4565 17.7192 15.5502 17.5474C15.8135 17.0645 15.9106 16.5211 15.9556 15.9736C16 15.4346 16 14.7833 16 14.0376V14V9.75961L16.0001 9.57077C16.0011 8.39867 16.0019 7.50813 15.634 6.70837C15.2662 5.90862 14.5896 5.32964 13.699 4.56762L13.5555 4.44481L12.5555 3.58767L12.5069 3.54601L12.5069 3.54597C11.6167 2.78288 10.878 2.14973 10.2209 1.71572C9.52843 1.25838 8.82516 0.951233 8 0.951233C7.17483 0.951233 6.47156 1.25838 5.7791 1.71572C5.12194 2.14974 4.3833 2.7829 3.49306 3.54601L3.44445 3.58767L2.44445 4.44481L2.30101 4.56763C1.41044 5.32964 0.733776 5.90863 0.365948 6.70837C-0.0018803 7.50811 -0.00111736 8.39864 -0.000110284 9.57071V9.57077L-3.47211e-06 9.75961V14V14.0658C-5.68779e-05 14.9523 -9.50248e-05 15.7161 0.0821346 16.3278C0.170269 16.9833 0.369015 17.6117 0.878674 18.1213C1.2455 18.4882 1.62349 18.7607 2.13484 18.8943C2.54281 19.0009 2.99396 19.0005 3.42173 19L3.5 19H4.5C5.05228 19 5.5 18.5523 5.5 18V14C5.5 13.4477 5.94771 13 6.5 13H9.5C10.0523 13 10.5 13.4477 10.5 14Z" fill="#33363F"/>
</svg>
