<svg width="20" height="20" viewBox="0 0 20 20" fill="none" xmlns="http://www.w3.org/2000/svg">
<path fill-rule="evenodd" clip-rule="evenodd" d="M16.9896 3.02434C16.6107 3.09174 16.0735 3.26805 15.2133 3.55477L6.9987 6.29298C5.63544 6.7474 4.67293 7.06909 3.99907 7.35611C3.66539 7.49823 3.44226 7.61565 3.29538 7.71435C3.17026 7.79844 3.13485 7.84626 3.13186 7.85032C2.95605 8.15784 2.95605 8.53544 3.13186 8.84296C3.13485 8.84702 3.17026 8.89484 3.29538 8.97892C3.44226 9.07763 3.66539 9.19504 3.99907 9.33717C4.67293 9.62419 5.63544 9.94588 6.9987 10.4003C7.02982 10.4107 7.0607 10.4209 7.09133 10.4311C7.53973 10.58 7.9346 10.7112 8.27599 10.9406C8.59841 11.1573 8.87567 11.4346 9.09237 11.757C9.32182 12.0984 9.45298 12.4933 9.60191 12.9417C9.61208 12.9723 9.62234 13.0032 9.63271 13.0343C10.0871 14.3976 10.4088 15.3601 10.6958 16.0339C10.838 16.3676 10.9554 16.5908 11.0541 16.7376C11.1381 16.8627 11.1859 16.8981 11.19 16.9011C11.4976 17.077 11.8752 17.077 12.1827 16.9011C12.1868 16.8981 12.2346 16.8627 12.3187 16.7376C12.4174 16.5908 12.5348 16.3676 12.6769 16.0339C12.9639 15.3601 13.2856 14.3976 13.74 13.0343L16.4782 4.81968C16.765 3.95951 16.9413 3.42228 17.0087 3.04338C17.0101 3.03549 17.0114 3.02781 17.0127 3.02035C17.0052 3.0216 16.9975 3.02293 16.9896 3.02434ZM17.2486 3.00122C17.2484 3.0014 17.2451 3.00113 17.2394 2.99987C17.2459 3.00041 17.2488 3.00104 17.2486 3.00122ZM17.0331 2.79366C17.0319 2.7879 17.0316 2.78461 17.0318 2.78441C17.032 2.7842 17.0326 2.78708 17.0331 2.79366ZM16.6394 1.05525C17.1903 0.957232 17.9449 0.928044 18.5249 1.5081C19.105 2.08816 19.0758 2.84267 18.9778 3.39366C18.8814 3.9351 18.655 4.61424 18.3995 5.38054L18.3756 5.45214L15.6374 13.6668L15.6219 13.7132C15.1865 15.0196 14.8397 16.06 14.5169 16.8177C14.2135 17.5301 13.8302 18.2611 13.1813 18.634C12.2557 19.166 11.1171 19.166 10.1915 18.634C9.54256 18.2611 9.15924 17.5301 8.8558 16.8177C8.53306 16.06 8.18629 15.0196 7.75086 13.7133L7.73535 13.6668C7.53753 13.0733 7.49042 12.9589 7.43246 12.8727C7.36022 12.7652 7.2678 12.6728 7.16033 12.6006C7.07409 12.5426 6.95969 12.4955 6.36624 12.2977L6.3197 12.2822C5.01338 11.8467 3.97304 11.4999 3.21533 11.1772C2.50291 10.8738 1.77194 10.4904 1.39898 9.84154C0.867005 8.91593 0.867005 7.77735 1.39898 6.85174C1.77194 6.20283 2.50291 5.81951 3.21533 5.51607C3.97304 5.19333 5.01339 4.84656 6.31972 4.41112L6.36624 4.39562L14.5809 1.6574L14.6525 1.63353C15.4188 1.37801 16.0979 1.15157 16.6394 1.05525Z" fill="#33363F"/>
<path d="M15.2133 3.55477L15.2924 3.79194L15.2924 3.79194L15.2133 3.55477ZM16.9896 3.02434L16.9459 2.7782L16.9458 2.7782L16.9896 3.02434ZM6.9987 6.29298L6.91964 6.05581L6.91964 6.05581L6.9987 6.29298ZM3.99907 7.35611L3.9011 7.1261L3.9011 7.1261L3.99907 7.35611ZM3.29538 7.71435L3.15594 7.50685L3.15594 7.50685L3.29538 7.71435ZM3.13186 7.85032L2.93041 7.70227L2.92193 7.71381L2.91483 7.72624L3.13186 7.85032ZM3.13186 8.84296L2.91483 8.96704L2.92193 8.97947L2.93041 8.99101L3.13186 8.84296ZM3.29538 8.97892L3.15594 9.18642L3.15594 9.18642L3.29538 8.97892ZM3.99907 9.33717L3.9011 9.56718L3.9011 9.56718L3.99907 9.33717ZM6.9987 10.4003L6.91964 10.6375L6.91964 10.6375L6.9987 10.4003ZM7.09133 10.4311L7.01252 10.6684L7.01253 10.6684L7.09133 10.4311ZM8.27599 10.9406L8.13653 11.1481L8.13653 11.1481L8.27599 10.9406ZM9.09237 11.757L8.88488 11.8965L8.88488 11.8965L9.09237 11.757ZM9.60191 12.9417L9.36465 13.0205L9.36465 13.0205L9.60191 12.9417ZM9.63271 13.0343L9.39554 13.1134L9.39554 13.1134L9.63271 13.0343ZM10.6958 16.0339L10.9258 15.936L10.9258 15.936L10.6958 16.0339ZM11.0541 16.7376L10.8466 16.8771L10.8466 16.8771L11.0541 16.7376ZM11.19 16.9011L11.042 17.1026L11.0535 17.1111L11.066 17.1182L11.19 16.9011ZM12.1827 16.9011L12.3068 17.1182L12.3192 17.1111L12.3308 17.1026L12.1827 16.9011ZM12.3187 16.7376L12.5262 16.8771L12.5262 16.8771L12.3187 16.7376ZM12.6769 16.0339L12.9069 16.1319L12.9069 16.1319L12.6769 16.0339ZM13.74 13.0343L13.9772 13.1134L13.9772 13.1134L13.74 13.0343ZM16.4782 4.81968L16.7154 4.89874L16.7154 4.89874L16.4782 4.81968ZM17.0087 3.04338L17.2548 3.08716L17.2548 3.08713L17.0087 3.04338ZM17.0127 3.02035L17.2592 3.06185L17.3175 2.71548L16.9711 2.77382L17.0127 3.02035ZM17.2486 3.00122L17.4143 3.18845L17.4143 3.1884L17.2486 3.00122ZM17.2394 2.99987L17.2598 2.7507L17.1856 3.24402L17.2394 2.99987ZM17.0331 2.79366L16.789 2.84746L17.2823 2.7733L17.0331 2.79366ZM18.5249 1.5081L18.7017 1.33132L18.7017 1.33132L18.5249 1.5081ZM16.6394 1.05525L16.6831 1.30139L16.6831 1.30139L16.6394 1.05525ZM18.9778 3.39366L18.7316 3.34987L18.7316 3.34987L18.9778 3.39366ZM18.3995 5.38054L18.1623 5.30146L18.1623 5.30147L18.3995 5.38054ZM18.3756 5.45214L18.1384 5.37307L18.1384 5.37308L18.3756 5.45214ZM15.6374 13.6668L15.4002 13.5877L15.4002 13.5877L15.6374 13.6668ZM15.6219 13.7132L15.8591 13.7923L15.8591 13.7923L15.6219 13.7132ZM14.5169 16.8177L14.2869 16.7197L14.2869 16.7197L14.5169 16.8177ZM13.1813 18.634L13.0567 18.4173L13.0567 18.4173L13.1813 18.634ZM10.1915 18.634L10.3161 18.4173L10.316 18.4173L10.1915 18.634ZM8.8558 16.8177L9.0858 16.7197L9.0858 16.7197L8.8558 16.8177ZM7.75086 13.7133L7.51369 13.7924L7.51369 13.7924L7.75086 13.7133ZM7.73535 13.6668L7.97252 13.5877L7.97252 13.5877L7.73535 13.6668ZM7.43246 12.8727L7.63995 12.7332L7.63995 12.7332L7.43246 12.8727ZM7.16033 12.6006L7.29979 12.3931L7.29979 12.3931L7.16033 12.6006ZM6.36624 12.2977L6.4453 12.0605L6.44529 12.0605L6.36624 12.2977ZM6.3197 12.2822L6.24065 12.5193L6.24065 12.5193L6.3197 12.2822ZM3.21533 11.1772L3.11736 11.4072L3.21533 11.1772ZM1.39898 9.84154L1.18223 9.96611L1.18223 9.96611L1.39898 9.84154ZM1.39898 6.85174L1.18223 6.72717L1.39898 6.85174ZM3.21533 5.51607L3.3133 5.74607L3.3133 5.74607L3.21533 5.51607ZM6.31972 4.41112L6.39877 4.64829L6.39877 4.64829L6.31972 4.41112ZM6.36624 4.39562L6.4453 4.63279L6.4453 4.63279L6.36624 4.39562ZM14.5809 1.6574L14.6599 1.89458L14.6599 1.89457L14.5809 1.6574ZM14.6525 1.63353L14.7316 1.87069L14.7316 1.87069L14.6525 1.63353ZM15.2924 3.79194C16.161 3.50239 16.677 3.33387 17.0334 3.27047L16.9458 2.7782C16.5444 2.84961 15.986 3.0337 15.1343 3.3176L15.2924 3.79194ZM7.07775 6.53015L15.2924 3.79194L15.1343 3.3176L6.91964 6.05581L7.07775 6.53015ZM4.09703 7.58611C4.75928 7.30404 5.71004 6.98606 7.07775 6.53015L6.91964 6.05581C5.56084 6.50874 4.58658 6.83413 3.9011 7.1261L4.09703 7.58611ZM3.43482 7.92185C3.563 7.83572 3.76991 7.72545 4.09703 7.58611L3.9011 7.1261C3.56086 7.27102 3.32152 7.39558 3.15594 7.50685L3.43482 7.92185ZM3.33331 7.99837C3.3157 8.02233 3.32817 7.99352 3.43482 7.92185L3.15594 7.50685C3.01235 7.60335 2.95399 7.67018 2.93041 7.70227L3.33331 7.99837ZM3.34889 8.71888C3.21704 8.48824 3.21704 8.20504 3.34889 7.9744L2.91483 7.72624C2.69506 8.11064 2.69506 8.58264 2.91483 8.96704L3.34889 8.71888ZM3.43482 8.77142C3.32817 8.69976 3.3157 8.67095 3.33331 8.69491L2.93041 8.99101C2.95399 9.0231 3.01235 9.08993 3.15594 9.18642L3.43482 8.77142ZM4.09704 9.10717C3.76991 8.96783 3.563 8.85756 3.43482 8.77142L3.15594 9.18642C3.32152 9.29769 3.56086 9.42226 3.9011 9.56718L4.09704 9.10717ZM7.07775 10.1631C5.71004 9.70722 4.75928 9.38924 4.09704 9.10717L3.9011 9.56718C4.58658 9.85915 5.56084 10.1845 6.91964 10.6375L7.07775 10.1631ZM7.17013 10.1938C7.13949 10.1837 7.10873 10.1735 7.07775 10.1631L6.91964 10.6375C6.95092 10.6479 6.98192 10.6582 7.01252 10.6684L7.17013 10.1938ZM8.41544 10.7332C8.04065 10.4812 7.61151 10.3404 7.17013 10.1938L7.01253 10.6684C7.46794 10.8196 7.82855 10.9411 8.13653 11.1481L8.41544 10.7332ZM9.29986 11.6176C9.0651 11.2683 8.76473 10.9679 8.41544 10.7332L8.13653 11.1481C8.43208 11.3468 8.68624 11.6009 8.88488 11.8965L9.29986 11.6176ZM9.83917 12.8629C9.69256 12.4215 9.55177 11.9924 9.29986 11.6176L8.88488 11.8965C9.09188 12.2045 9.21339 12.5651 9.36465 13.0205L9.83917 12.8629ZM9.86989 12.9553C9.85956 12.9243 9.84934 12.8935 9.83916 12.8629L9.36465 13.0205C9.37482 13.0511 9.38512 13.0821 9.39554 13.1134L9.86989 12.9553ZM10.9258 15.936C10.6438 15.2737 10.3258 14.323 9.86988 12.9553L9.39554 13.1134C9.84848 14.4722 10.1739 15.4464 10.4658 16.1319L10.9258 15.936ZM11.2616 16.5982C11.1755 16.47 11.0652 16.2631 10.9258 15.936L10.4658 16.1319C10.6108 16.4722 10.7353 16.7115 10.8466 16.8771L11.2616 16.5982ZM11.3381 16.6997C11.362 16.7173 11.3332 16.7048 11.2616 16.5982L10.8466 16.8771C10.943 17.0206 11.0099 17.079 11.042 17.1026L11.3381 16.6997ZM12.0586 16.6841C11.828 16.816 11.5448 16.816 11.3141 16.6841L11.066 17.1182C11.4504 17.338 11.9224 17.338 12.3068 17.1182L12.0586 16.6841ZM12.1112 16.5982C12.0395 16.7048 12.0107 16.7173 12.0346 16.6997L12.3308 17.1026C12.3629 17.079 12.4297 17.0206 12.5262 16.8771L12.1112 16.5982ZM12.4469 15.936C12.3076 16.2631 12.1973 16.47 12.1112 16.5982L12.5262 16.8771C12.6374 16.7115 12.762 16.4722 12.9069 16.1319L12.4469 15.936ZM13.5029 12.9553C13.047 14.323 12.729 15.2737 12.4469 15.936L12.9069 16.1319C13.1989 15.4464 13.5243 14.4722 13.9772 13.1134L13.5029 12.9553ZM16.2411 4.74062L13.5029 12.9553L13.9772 13.1134L16.7154 4.89874L16.2411 4.74062ZM16.7625 2.99959C16.6991 3.35599 16.5306 3.87198 16.2411 4.74062L16.7154 4.89874C16.9993 4.04703 17.1834 3.48857 17.2548 3.08716L16.7625 2.99959ZM16.7661 2.97884C16.765 2.98556 16.7638 2.99249 16.7625 2.99962L17.2548 3.08713C17.2564 3.0785 17.2578 3.07007 17.2592 3.06185L16.7661 2.97884ZM17.0334 3.27047C17.0406 3.2692 17.0475 3.268 17.0542 3.26687L16.9711 2.77382C16.9629 2.77521 16.9545 2.77667 16.9459 2.7782L17.0334 3.27047ZM17.0829 2.81399C17.1141 2.78643 17.1446 2.77337 17.1588 2.76791C17.1752 2.76159 17.1891 2.75828 17.1974 2.75654C17.2138 2.7531 17.227 2.75211 17.2329 2.75175C17.2456 2.75096 17.2556 2.75136 17.2594 2.75153C17.2684 2.75194 17.2752 2.75278 17.2782 2.75316C17.2853 2.75408 17.2903 2.7551 17.2931 2.75571L17.1856 3.24402C17.1941 3.2459 17.2037 3.24769 17.2139 3.24901C17.2184 3.2496 17.2265 3.25055 17.2364 3.251C17.2406 3.25119 17.2509 3.2516 17.2639 3.25079C17.2699 3.25042 17.2832 3.24941 17.2997 3.24596C17.3031 3.24525 17.3611 3.23547 17.4143 3.18845L17.0829 2.81399ZM17.219 3.24903C17.218 3.24895 17.2132 3.24856 17.2061 3.24738C17.2037 3.247 17.1944 3.24548 17.1825 3.24223C17.18 3.24154 17.1601 3.2364 17.1368 3.2248C17.1326 3.22268 17.0874 3.20178 17.0503 3.15341C17.0286 3.12513 16.9942 3.06688 16.9991 2.98606C17.0042 2.90127 17.0492 2.84387 17.0829 2.81405L17.4143 3.1884C17.448 3.15856 17.493 3.10115 17.4982 3.01634C17.5031 2.93551 17.4686 2.87725 17.4469 2.84895C17.4098 2.80055 17.3645 2.77962 17.3602 2.77747C17.3368 2.7658 17.3167 2.76057 17.3138 2.75979C17.3012 2.75635 17.2909 2.75461 17.287 2.75398C17.2768 2.7523 17.2673 2.75132 17.2598 2.7507L17.219 3.24903ZM17.2773 2.73986C17.2779 2.74267 17.2789 2.74778 17.2799 2.75487C17.2802 2.75787 17.2811 2.76477 17.2815 2.77387C17.2817 2.77766 17.2821 2.78766 17.2812 2.80049C17.2809 2.8064 17.2799 2.81962 17.2764 2.8361C17.2746 2.84443 17.2713 2.85825 17.2649 2.87465C17.2594 2.88887 17.2464 2.91921 17.2189 2.95018L16.8447 2.61864C16.7978 2.67153 16.7879 2.72924 16.7871 2.73286C16.7837 2.74942 16.7826 2.76274 16.7822 2.76877C16.7814 2.78184 16.7818 2.79217 16.782 2.7964C16.7824 2.80635 16.7834 2.81447 16.784 2.81903C16.7853 2.82927 16.7871 2.83889 16.789 2.84746L17.2773 2.73986ZM17.2189 2.95018C17.1892 2.98371 17.1321 3.02857 17.0475 3.0339C16.9668 3.03899 16.9085 3.0048 16.88 2.98303C16.8314 2.94587 16.8104 2.90054 16.8083 2.89628C16.7966 2.87298 16.7915 2.85301 16.7908 2.85049C16.7875 2.83854 16.786 2.82925 16.7856 2.8269C16.7844 2.81971 16.7841 2.81498 16.784 2.81402L17.2823 2.7733C17.2817 2.76576 17.2807 2.7563 17.279 2.74607C17.2784 2.74221 17.2767 2.73183 17.2732 2.71919C17.2724 2.71633 17.2672 2.69612 17.2555 2.67267C17.2533 2.66834 17.2323 2.62296 17.1836 2.58578C17.1551 2.564 17.0968 2.5298 17.0161 2.53489C16.9315 2.54022 16.8744 2.58509 16.8447 2.61864L17.2189 2.95018ZM18.7017 1.33132C18.0307 0.66033 17.1658 0.707673 16.5956 0.809114L16.6831 1.30139C17.2149 1.20679 17.859 1.19576 18.3481 1.68488L18.7017 1.33132ZM19.2239 3.43745C19.3253 2.8672 19.3727 2.00232 18.7017 1.33132L18.3481 1.68488C18.8373 2.174 18.8262 2.81813 18.7316 3.34987L19.2239 3.43745ZM18.6366 5.45962C18.8899 4.70004 19.1236 4.00099 19.2239 3.43745L18.7316 3.34987C18.6392 3.86921 18.4201 4.52844 18.1623 5.30146L18.6366 5.45962ZM18.6128 5.53121L18.6366 5.45961L18.1623 5.30147L18.1384 5.37307L18.6128 5.53121ZM15.8746 13.7458L18.6128 5.53119L18.1384 5.37308L15.4002 13.5877L15.8746 13.7458ZM15.8591 13.7923L15.8746 13.7458L15.4002 13.5877L15.3847 13.6342L15.8591 13.7923ZM14.747 16.9156C15.0746 16.1464 15.425 15.0945 15.8591 13.7923L15.3847 13.6342C14.9479 14.9446 14.6048 15.9735 14.2869 16.7197L14.747 16.9156ZM13.3058 18.8508C14.0341 18.4322 14.444 17.627 14.747 16.9156L14.2869 16.7197C13.983 17.4332 13.6262 18.0899 13.0567 18.4173L13.3058 18.8508ZM10.0669 18.8508C11.0696 19.4271 12.3031 19.4271 13.3058 18.8508L13.0567 18.4173C12.2082 18.9049 11.1645 18.9049 10.3161 18.4173L10.0669 18.8508ZM8.62579 16.9156C8.92877 17.627 9.33861 18.4322 10.0669 18.8508L10.316 18.4173C9.74651 18.0899 9.38971 17.4332 9.0858 16.7197L8.62579 16.9156ZM7.51369 13.7924C7.94775 15.0946 8.29814 16.1464 8.62579 16.9156L9.0858 16.7197C8.76799 15.9736 8.42483 14.9447 7.98803 13.6343L7.51369 13.7924ZM7.49817 13.7458L7.51369 13.7924L7.98803 13.6343L7.97252 13.5877L7.49817 13.7458ZM7.22497 13.0121C7.25915 13.063 7.29493 13.1361 7.49818 13.7458L7.97252 13.5877C7.78013 13.0106 7.7217 12.8549 7.63995 12.7332L7.22497 13.0121ZM7.02087 12.808C7.10148 12.8622 7.17079 12.9315 7.22497 13.0121L7.63995 12.7332C7.54965 12.5989 7.43413 12.4834 7.29979 12.3931L7.02087 12.808ZM6.28718 12.5348C6.89693 12.7381 6.97002 12.7739 7.02087 12.808L7.29979 12.3931C7.17816 12.3113 7.02245 12.2529 6.4453 12.0605L6.28718 12.5348ZM6.24065 12.5193L6.28719 12.5348L6.44529 12.0605L6.39875 12.045L6.24065 12.5193ZM3.11736 11.4072C3.88661 11.7349 4.93844 12.0853 6.24065 12.5193L6.39876 12.045C5.08833 11.6082 4.05946 11.265 3.3133 10.9472L3.11736 11.4072ZM1.18223 9.96611C1.6008 10.6944 2.40603 11.1042 3.11736 11.4072L3.3133 10.9472C2.59978 10.6433 1.94307 10.2865 1.61574 9.71696L1.18223 9.96611ZM1.18223 6.72717C0.605922 7.72991 0.605922 8.96337 1.18223 9.96611L1.61574 9.71696C1.12809 8.86849 1.12809 7.82479 1.61574 6.97632L1.18223 6.72717ZM3.11736 5.28606C2.40603 5.58904 1.6008 5.99888 1.18223 6.72717L1.61574 6.97632C1.94307 6.40678 2.59978 6.04998 3.3133 5.74607L3.11736 5.28606ZM6.24066 4.17395C4.93844 4.60801 3.88661 4.95841 3.11736 5.28606L3.3133 5.74607C4.05946 5.42825 5.08833 5.0851 6.39877 4.64829L6.24066 4.17395ZM6.28719 4.15844L6.24066 4.17395L6.39877 4.64829L6.4453 4.63279L6.28719 4.15844ZM14.5018 1.42023L6.28718 4.15844L6.4453 4.63279L14.6599 1.89458L14.5018 1.42023ZM14.5734 1.39636L14.5018 1.42024L14.6599 1.89457L14.7316 1.87069L14.5734 1.39636ZM16.5956 0.809114C16.032 0.909363 15.333 1.14309 14.5734 1.39636L14.7316 1.87069C15.5046 1.61294 16.1638 1.39377 16.6831 1.30139L16.5956 0.809114Z" fill="black"/>
</svg>
