<?xml version="1.0" encoding="UTF-8"?>
<svg id="Layer_1" data-name="Layer 1" xmlns="http://www.w3.org/2000/svg" viewBox="0 0 20.03 20.03">
  <defs>
    <style>
      .cls-1 {
        fill: #33363f;
        fill-rule: evenodd;
        stroke-width: 0px;
      }
    </style>
  </defs>
  <path class="cls-1" d="m1.96,8.86c0-3.81,3.09-6.9,6.9-6.9s6.9,3.09,6.9,6.9-3.09,6.9-6.9,6.9S1.96,12.67,1.96,8.86ZM8.9,0C3.98,0,0,3.98,0,8.9s3.98,8.9,8.9,8.9c2.06,0,3.95-.7,5.46-1.87l3.77,3.77c.43.43,1.14.43,1.57,0,.43-.43.43-1.14,0-1.57l-3.77-3.77c1.17-1.51,1.87-3.4,1.87-5.46C17.8,3.98,13.82,0,8.9,0Zm-.04,14.04c2.86,0,5.17-2.32,5.17-5.17s-2.32-5.17-5.17-5.17-5.17,2.32-5.17,5.17,2.32,5.17,5.17,5.17Z"/>
</svg>