<svg width="24" height="24" viewBox="0 0 24 24" fill="none" xmlns="http://www.w3.org/2000/svg">
<path d="M7.10264 9.63245L2.84605 11.0513C1.66944 11.4435 1.08114 11.6396 1.08114 12C1.08114 12.3604 1.66944 12.5565 2.84605 12.9487L7.10263 14.3675L7.10264 14.3675C8.0337 14.6779 8.49923 14.8331 8.83307 15.1669C9.16693 15.5008 9.3221 15.9663 9.63245 16.8974L11.0513 21.1539C11.4435 22.3306 11.6396 22.9189 12 22.9189C12.3604 22.9189 12.5565 22.3306 12.9487 21.154L14.3675 16.8974C14.6779 15.9663 14.8331 15.5008 15.1669 15.1669C15.5008 14.8331 15.9663 14.6779 16.8974 14.3675L21.1539 12.9487C22.3306 12.5565 22.9189 12.3604 22.9189 12C22.9189 11.6396 22.3306 11.4435 21.154 11.0513L16.8974 9.63246C15.9663 9.3221 15.5008 9.16693 15.1669 8.83307C14.8331 8.49923 14.6779 8.0337 14.3675 7.10265L14.3675 7.10264L12.9487 2.84605C12.5565 1.66944 12.3604 1.08114 12 1.08114C11.6396 1.08114 11.4435 1.66944 11.0513 2.84605L9.63246 7.10263L9.63245 7.10264C9.3221 8.0337 9.16692 8.49923 8.83307 8.83307C8.49923 9.16692 8.0337 9.3221 7.10265 9.63245L7.10264 9.63245Z" fill="#B47DF2" stroke="#B47DF2" stroke-width="2"/>
</svg>
